<?xml version="1.0" encoding="UTF-8" standalone="no"?>
<!-- Created with Inkscape (http://www.inkscape.org/) -->

<svg
   width="522.35156mm"
   height="522.3515mm"
   viewBox="0 0 522.35156 522.3515"
   version="1.1"
   id="svg1"
   inkscape:version="1.3 (0e150ed6c4, 2023-07-21)"
   sodipodi:docname="mster.svg"
   xmlns:inkscape="http://www.inkscape.org/namespaces/inkscape"
   xmlns:sodipodi="http://sodipodi.sourceforge.net/DTD/sodipodi-0.dtd"
   xmlns="http://www.w3.org/2000/svg"
   xmlns:svg="http://www.w3.org/2000/svg">
  <sodipodi:namedview
     id="namedview1"
     pagecolor="#ffffff"
     bordercolor="#000000"
     borderopacity="0.25"
     inkscape:showpageshadow="2"
     inkscape:pageopacity="0.0"
     inkscape:pagecheckerboard="0"
     inkscape:deskcolor="#d1d1d1"
     inkscape:document-units="mm"
     inkscape:zoom="0.1767767"
     inkscape:cx="2384.3641"
     inkscape:cy="2743.5743"
     inkscape:window-width="1920"
     inkscape:window-height="1009"
     inkscape:window-x="-8"
     inkscape:window-y="-8"
     inkscape:window-maximized="1"
     inkscape:current-layer="layer1" />
  <defs
     id="defs1" />
  <g
     inkscape:label="Layer 1"
     inkscape:groupmode="layer"
     id="layer1"
     transform="translate(-730.39418,-633.10808)">
    <rect
       style="fill:#1a1a1a;stroke-width:1.3;stroke-linecap:square;stroke-linejoin:bevel;stroke-miterlimit:100;paint-order:stroke fill markers"
       id="rect27"
       width="522.35156"
       height="522.35156"
       x="730.39417"
       y="633.10803"
       ry="3.0435407" />
    <path
       id="path1-7"
       style="fill:#f9f9f9;stroke-width:2.98181"
       d="m 875.83866,672.43893 c -9.51902,1.01221 -21.10821,3.52185 -26.83076,6.06821 -14.54238,6.47116 -25.03507,13.64374 -35.04173,23.95555 -16.99928,17.51773 -28.90186,44.47885 -31.41474,71.15674 -0.80082,8.50684 0.0337,11.92453 3.86842,15.81436 3.26083,3.30811 6.61981,4.55263 10.7911,3.99614 1.70094,-0.22515 4.78511,-0.12437 6.85481,0.22684 12.62615,2.14107 17.4761,8.32373 28.49998,36.33042 7.14496,18.15226 11.31031,26.85684 18.65796,38.98581 36.91997,60.9474 97.68205,96.3079 160.6594,93.49481 4.2915,-0.19173 12.3252,-1.15262 17.8524,-2.13496 35.3176,-6.27548 66.0595,-23.26986 91.6095,-50.64323 l 3.711,-3.97446 0.061,-0.009 0.339,-0.42172 0.3784,-0.40382 -0.013,-0.053 4.857,-6.04727 2.6407,-3.59092 1.7843,-2.51879 0.1484,-0.37607 c 0.5183,-0.62628 0.9387,-1.04825 1.6349,-2.03396 1.8756,-2.65423 3.621,-4.85468 3.8791,-4.88991 0.2567,-0.035 1.9492,1.36728 3.7582,3.1153 0.8938,0.86389 1.5463,1.43277 2.1277,1.87051 l -0.061,0.009 4.1687,3.72414 c 0,0 0,0.0356 0.041,0.0309 l 11.3381,10.12947 0.081,-0.0116 c 1.0466,1.14217 2.9582,2.90814 6.6739,6.25584 15.6474,14.09725 18.2179,15.44143 24.8537,13.00283 5.6807,-2.08788 8.8308,-11.22721 6.1476,-17.83489 -1.2378,-3.04819 -6.5216,-8.84484 -9.0593,-10.25704 l 0.079,-0.0103 -4.2308,-3.93789 -3.6862,-3.04091 c -0.1176,-0.20537 -0.2061,-0.45625 -0.3452,-0.60607 -0.3853,-0.41218 -0.6847,-0.66367 -0.8947,-0.76895 -0.1573,-0.0803 -0.2657,-0.0761 -0.3227,0.004 -0.013,10e-4 0.014,0.0708 0.013,0.0896 l -3.5081,-2.89304 -0.1124,0.0222 c -1.8217,-1.97396 -5.0363,-5.06217 -10.1748,-9.72763 -7.1542,-6.49566 -13.1662,-12.15918 -13.3592,-12.58563 -0.1929,-0.42611 0.4151,-2.33407 1.35,-4.23979 3.9174,-7.98622 9.4188,-22.65602 12.2929,-34.76126 4.6849,-19.73227 2.9731,-10.08201 4.6675,-30.04028 l -1.0385,-1.93356 -1.0918,-1.19093 -2.1665,-1.427 -3.748,-1.24885 -3.8966,-0.45363 -3.5536,0.22893 -3.8255,0.95413 -2.8001,2.03766 -1.1848,1.21318 -1.0147,2.08612 c -6.3053,37.83741 0.1934,0.88973 -3.775,20.70599 -2.1078,10.52554 -7.9319,25.39598 -9.8798,28.65379 -0.2542,0.4261 -8.4032,-6.7969 -18.1072,-16.05065 -84.6596,-80.72891 -126.57641,-114.5802 -168.76132,-136.28896 -22.32984,-11.49107 -44.28379,-17.79307 -63.37723,-18.19142 -2.41935,-0.0503 -5.36193,0.12024 -8.53521,0.4575 z m -1.64543,28.98979 c 13.72006,-1.87237 18.3011,-1.65077 31.45268,1.50648 8.50595,2.04221 26.16289,8.99882 36.13104,14.23619 22.25915,11.69421 49.10691,30.86826 78.20045,55.84721 4.8109,4.13069 10.1797,8.63691 11.9296,10.01355 6.3999,5.03471 88.1503,81.80152 88.9304,83.50879 0.1818,0.40074 -0.2093,1.44357 -0.8712,2.31855 -0.2396,0.31956 -0.424,0.62652 -0.5548,0.95338 l -5.4553,7.31449 -2.3836,3.62993 -2.2764,2.5859 -1.8122,1.86275 -1.5434,1.74979 c -0.044,0.0498 -0.062,0.0553 -0.106,0.10525 -2.3412,2.6539 -5.4599,5.86709 -7.334,7.61482 l -3.1718,2.83298 -3.1366,2.89211 -1.0361,0.87921 c -0.9049,0.76803 -1.7156,1.54897 -2.2945,2.18931 -7e-4,7e-5 0,2.3e-4 0,2.3e-4 l -2.6838,2.18867 -5.4567,4.03224 c -1.0461,0.64063 -1.4651,0.79834 -3.1062,1.86038 -12.5658,8.13309 -25.5289,14.06773 -39.1979,17.94579 v 0 c -8.159,2.31491 -29.7346,5.01641 -38.45907,4.81562 -3.9249,-0.0905 -11.37365,-0.77173 -16.55248,-1.51368 -34.85663,-4.99299 -69.12363,-24.66619 -94.24176,-54.1063 -15.31488,-17.95051 -24.9404,-34.29226 -33.99207,-57.71042 -12.40296,-32.08786 -18.54121,-42.62954 -28.63386,-49.17302 -4.25121,-2.75639 -13.5516,-6.34954 -15.76128,-6.09016 -2.25304,0.26384 -2.38441,-1.4251 -0.55803,-7.14092 7.64663,-23.93045 22.62933,-41.48448 44.45674,-52.08731 6.33937,-3.07938 7.89637,-3.48362 19.5204,-5.06739 z m -17.94008,33.0189 c -4.80009,0.9165 -9.09321,5.20461 -9.79182,11.88304 -0.68997,6.59882 4.31776,14.60525 9.8013,15.67174 3.85352,0.74934 5.88049,0.24723 9.00522,-2.23107 5.8029,-4.60234 6.74493,-13.20875 2.20175,-20.10536 -2.4127,-3.6627 -5.79064,-5.35751 -9.1381,-5.40252 -0.69747,-0.0103 -1.39301,0.0522 -2.07817,0.18552 z"
       sodipodi:nodetypes="cssccccscsccccccccccccsscccccccssccccccccccsssscccccccccccsccsscccscssccccccccccccscccccsssccsscssccccsssccc" />
    <path
       id="text27-8"
       style="font-weight:bold;font-size:69.5029px;font-family:'Samsung Sharp Sans';-inkscape-font-specification:'Samsung Sharp Sans Bold';text-align:center;text-anchor:middle;fill:#f9f9f9;stroke-width:8.00377;stroke-linecap:square;stroke-linejoin:bevel;stroke-miterlimit:100;paint-order:stroke fill markers"
       d="m 776.35416,996.37898 c -9.73039,0 -16.81964,6.39392 -16.81964,14.52572 0,9.6609 7.50645,12.2329 14.38723,14.457 5.35172,1.6681 10.56422,3.0581 10.56422,7.2977 0,3.5447 -2.71057,6.811 -7.71478,6.811 -4.65669,0 -8.54865,-2.4325 -11.12025,-6.8807 l -8.6186,6.8115 c 4.65669,5.2127 10.70374,9.1048 19.80861,9.1048 11.12046,0 17.5147,-7.7845 17.5147,-15.7773 0,-9.7304 -7.78448,-12.7884 -14.66526,-15.0125 -5.56022,-1.8766 -10.35595,-3.0581 -10.35595,-7.1588 0,-3.2666 2.4328,-5.7686 7.08949,-5.7686 3.96166,0 7.01953,1.5982 9.17411,4.8648 l 7.78454,-5.9076 c -4.10067,-4.2397 -8.89659,-7.36702 -17.02842,-7.36702 z m 44.82931,9.93892 c -5.56023,0 -10.35578,2.4323 -13.2054,6.2549 v -5.4208 h -9.31312 v 59.355 h 9.31312 v -23.4916 c 2.84962,3.6142 7.71493,5.6296 13.27516,5.6296 9.7999,0 19.9471,-7.7844 19.9471,-21.1289 0,-13.4836 -9.79995,-21.1982 -20.01686,-21.1982 z m 43.09194,0 c -10.28642,0 -20.15587,7.7146 -20.15587,21.1982 0,13.3445 10.21696,21.1289 20.01686,21.1289 5.35172,0 10.21678,-2.2937 13.2054,-6.1164 v 5.2824 h 9.38289 v -40.659 h -9.38289 v 4.8648 c -2.98862,-3.5447 -7.71467,-5.6989 -13.06639,-5.6989 z m 106.40849,0 c -11.74598,0 -21.05918,9.3132 -21.05918,21.1982 0,11.6765 9.3132,21.1289 21.05918,21.1289 11.67648,0 21.0597,-9.4524 21.0597,-21.1289 0,-11.885 -9.38322,-21.1982 -21.0597,-21.1982 z m 112.3172,0 c -5.2822,0 -9.4525,2.2932 -12.1631,5.8379 v -5.0038 h -9.3136 v 40.659 h 9.3828 v -22.3103 c 0,-7.1588 4.1702,-11.051 9.5219,-11.051 6.1163,0 9.1747,3.8922 9.1747,10.217 v 23.1443 h 9.5219 v -24.1174 c 0,-11.051 -5.9077,-17.3757 -16.1246,-17.3757 z m 41.2843,0 c -11.746,0 -21.0592,9.3132 -21.0592,21.1982 0,11.6765 9.3132,21.1289 21.0592,21.1289 11.6765,0 21.0597,-9.4524 21.0597,-21.1289 0,-11.885 -9.3832,-21.1982 -21.0597,-21.1982 z m 79.3724,0 c -10.2864,0 -20.1559,7.7146 -20.1559,21.1982 0,13.3445 10.217,21.1289 20.0169,21.1289 5.3517,0 10.2173,-2.2937 13.2059,-6.1164 v 5.2824 h 9.3829 v -40.659 h -9.3829 v 4.8648 c -2.9886,-3.5447 -7.7152,-5.6989 -13.0669,-5.6989 z m -311.23372,0.8341 v 40.659 h 9.38289 v -21.685 c 0,-7.0198 2.84934,-9.9389 8.34006,-9.9389 2.71061,0 4.23957,0.6948 5.62963,1.5983 l 3.545,-8.8961 c -1.87657,-1.0425 -4.17011,-1.7373 -7.15873,-1.7373 -5.07371,0 -8.54915,2.0155 -10.42572,6.0466 v -6.0466 z m 29.95579,0 v 40.659 h 9.38289 v -21.685 c 0,-7.0198 2.84934,-9.9389 8.34006,-9.9389 2.71061,0 4.23958,0.6948 5.62963,1.5983 l 3.54501,-8.8961 c -1.87658,-1.0425 -4.17012,-1.7373 -7.15874,-1.7373 -5.07371,0 -8.54914,2.0155 -10.42572,6.0466 v -6.0466 z m 68.87694,0 13.55319,40.659 h 9.2439 l 10.5647,-28.1487 10.2862,28.1487 h 9.0356 l 14.2477,-40.659 h -9.5219 l -9.3131,28.0789 -10.0087,-28.0789 h -9.3131 l -10.217,28.0096 -8.9658,-28.0096 z m 152.97619,0 15.4993,40.659 h 9.4521 l 15.2906,-40.659 h -9.6609 l -10.2862,28.6349 -10.495,-28.6349 z m -324.50887,7.7147 c 6.88078,0 12.23232,5.4906 12.23232,12.5104 0,7.0893 -5.35154,12.6493 -12.23232,12.6493 -7.01979,0 -12.09332,-5.6295 -12.09332,-12.6493 0,-6.9503 5.07353,-12.5104 12.09332,-12.5104 z m 45.94138,0 c 7.01978,0 12.16308,5.5601 12.16308,12.5104 0,7.0198 -5.1433,12.6493 -12.16308,12.6493 -6.95029,0 -12.30209,-5.56 -12.30209,-12.6493 0,-7.0198 5.3518,-12.5104 12.30209,-12.5104 z m 339.38239,0 c 7.0198,0 12.1631,5.5601 12.1631,12.5104 0,7.0198 -5.1433,12.6493 -12.1631,12.6493 -6.9503,0 -12.3021,-5.56 -12.3021,-12.6493 0,-7.0198 5.3518,-12.5104 12.3021,-12.5104 z m -234.364,0.2781 c 6.67227,0 11.81582,5.4905 11.81582,12.3713 0,6.7418 -5.14355,12.3021 -11.81582,12.3021 -6.74177,0 -11.8153,-5.5603 -11.8153,-12.3021 0,-6.8808 5.07353,-12.3713 11.8153,-12.3713 z m 153.6015,0 c 6.6723,0 11.8158,5.4905 11.8158,12.3713 0,6.7418 -5.1435,12.3021 -11.8158,12.3021 -6.7418,0 -11.8153,-5.5603 -11.8153,-12.3021 0,-6.8808 5.0735,-12.3713 11.8153,-12.3713 z" />
  </g>
</svg>
