<?xml version="1.0" encoding="UTF-8" standalone="no"?>
<!-- Created with Inkscape (http://www.inkscape.org/) -->

<svg
   width="601.67712mm"
   height="601.67725mm"
   viewBox="0 0 601.67712 601.67725"
   version="1.1"
   id="svg1"
   inkscape:version="1.3 (0e150ed6c4, 2023-07-21)"
   sodipodi:docname="mster.svg"
   xmlns:inkscape="http://www.inkscape.org/namespaces/inkscape"
   xmlns:sodipodi="http://sodipodi.sourceforge.net/DTD/sodipodi-0.dtd"
   xmlns="http://www.w3.org/2000/svg"
   xmlns:svg="http://www.w3.org/2000/svg">
  <sodipodi:namedview
     id="namedview1"
     pagecolor="#ffffff"
     bordercolor="#000000"
     borderopacity="0.25"
     inkscape:showpageshadow="2"
     inkscape:pageopacity="0.0"
     inkscape:pagecheckerboard="0"
     inkscape:deskcolor="#d1d1d1"
     inkscape:document-units="mm"
     inkscape:zoom="0.1767767"
     inkscape:cx="2384.3641"
     inkscape:cy="2743.5743"
     inkscape:window-width="1920"
     inkscape:window-height="1009"
     inkscape:window-x="-8"
     inkscape:window-y="-8"
     inkscape:window-maximized="1"
     inkscape:current-layer="layer1" />
  <defs
     id="defs1" />
  <g
     inkscape:label="Layer 1"
     inkscape:groupmode="layer"
     id="layer1"
     transform="translate(-260.37848,-2257.1603)">
    <rect
       style="fill:#1a1a1a;stroke-width:1.49742;stroke-linecap:square;stroke-linejoin:bevel;stroke-miterlimit:100;paint-order:stroke fill markers"
       id="rect27-4-9"
       width="601.67719"
       height="601.67719"
       x="260.37848"
       y="2257.1604"
       ry="300.83859"
       inkscape:export-filename="..\Icons\finalrcircle.svg"
       inkscape:export-xdpi="96"
       inkscape:export-ydpi="96" />
    <path
       id="path1-7-9-5"
       style="fill:#f9f9f9;stroke-width:3.37629"
       d="m 430.1749,2393.9646 c -10.77836,1.1462 -23.90076,3.9878 -30.38039,6.8711 -16.46629,7.3272 -28.34713,15.4487 -39.67764,27.1247 -19.24824,19.8353 -32.72549,50.3634 -35.57082,80.5706 -0.90677,9.6323 0.0382,13.5021 4.3802,17.9066 3.69223,3.7457 7.49559,5.1548 12.21873,4.5247 1.92597,-0.2549 5.41817,-0.1407 7.76168,0.2569 14.29655,2.4244 19.78814,9.4249 32.27044,41.1368 8.09022,20.5538 12.80663,30.4099 21.12636,44.1436 41.80437,69.0105 110.60509,109.0491 181.91416,105.8638 4.85925,-0.217 13.95578,-1.3051 20.21421,-2.4173 39.99002,-7.1057 74.79898,-26.3484 103.72917,-57.3433 l 4.20195,-4.5002 0.0691,-0.011 0.38385,-0.4775 0.42846,-0.4573 -0.0147,-0.06 5.49957,-6.8473 2.99006,-4.066 2.02035,-2.8519 0.16804,-0.4259 c 0.58687,-0.7092 1.06288,-1.187 1.85119,-2.3031 2.12373,-3.0053 4.10005,-5.497 4.39229,-5.5368 0.29066,-0.04 2.20708,1.5482 4.2554,3.5274 1.01205,0.9782 1.75087,1.6224 2.40919,2.118 l -0.0691,0.011 4.72021,4.2169 c 0,0 0,0.041 0.0464,0.035 l 12.8381,11.4695 0.0917,-0.014 c 1.18506,1.2933 3.34956,3.293 7.55684,7.0836 17.7175,15.9622 20.62807,17.4842 28.14177,14.723 6.43224,-2.3641 9.99909,-12.7125 6.96091,-20.1944 -1.40156,-3.4515 -7.38439,-10.015 -10.25782,-11.614 l 0.0894,-0.011 -4.79052,-4.4589 -4.17387,-3.4432 c -0.13316,-0.2326 -0.23337,-0.5167 -0.39087,-0.6863 -0.43628,-0.4667 -0.77529,-0.7515 -1.01307,-0.8706 -0.17811,-0.091 -0.30085,-0.086 -0.36539,0 -0.0147,0 0.0159,0.08 0.0147,0.1019 l -3.97221,-3.2758 -0.12727,0.025 c -2.06271,-2.2351 -5.70259,-5.7319 -11.5209,-11.0146 -8.10068,-7.355 -14.90805,-13.7678 -15.12658,-14.2507 -0.21842,-0.4825 0.47002,-2.6428 1.5286,-4.8006 4.43566,-9.0429 10.66488,-25.6534 13.91921,-39.3601 5.3047,-22.3428 3.36644,-11.4158 5.285,-34.0146 l -1.17589,-2.1893 -1.23624,-1.3485 -2.45312,-1.6158 -4.24385,-1.414 -4.41211,-0.5136 -4.02373,0.2591 -4.3316,1.0804 -3.17055,2.3073 -1.34154,1.3735 -1.14895,2.3622 c -7.13947,42.8432 0.21899,1.0074 -4.27442,23.4454 -2.38665,11.918 -8.98126,28.7557 -11.18687,32.4445 -0.28783,0.4826 -9.51491,-7.696 -20.50272,-18.1741 -95.85982,-91.4091 -143.32209,-129.7388 -191.08794,-154.3196 -25.28401,-13.0112 -50.14241,-20.147 -71.76185,-20.5981 -2.73942,-0.057 -6.0713,0.1363 -9.66439,0.5181 z m -1.86311,32.825 c 15.53518,-2.12 20.72228,-1.869 35.61377,1.7058 9.63126,2.3124 29.62416,10.1894 40.91107,16.1197 25.20397,13.2413 55.60361,34.952 88.54614,63.2356 5.44736,4.6771 11.52644,9.7795 13.50785,11.3383 7.24658,5.7008 99.81232,92.6236 100.69562,94.5567 0.20586,0.4538 -0.23699,1.6346 -0.98645,2.6253 -0.2713,0.3619 -0.4801,0.7094 -0.6282,1.0796 l -6.17702,8.2822 -2.69894,4.1101 -2.57757,2.928 -2.05194,2.1091 -1.74759,1.9813 c -0.0498,0.057 -0.0702,0.062 -0.12003,0.1192 -2.65093,3.005 -6.18222,6.6433 -8.30426,8.6223 l -3.59142,3.2078 -3.55156,3.2747 -1.17318,0.9955 c -1.02461,0.8696 -1.94257,1.7539 -2.59805,2.4789 -7.9e-4,1e-4 0,2e-4 0,2e-4 l -3.03886,2.4783 -6.17861,4.5658 c -1.18449,0.7253 -1.65892,0.9039 -3.51714,2.1064 -14.22822,9.2091 -28.90629,15.9289 -44.38366,20.32 v 0 c -9.23841,2.6211 -33.6684,5.68 -43.54709,5.4526 -4.44416,-0.103 -12.87835,-0.8737 -18.74233,-1.7138 -39.46805,-5.6536 -78.26848,-27.9295 -106.70966,-61.2644 -17.34099,-20.3253 -28.23994,-38.8291 -38.48912,-65.3454 -14.04383,-36.3329 -20.99416,-48.2693 -32.42203,-55.6785 -4.81364,-3.121 -15.34444,-7.1895 -17.84645,-6.8958 -2.55111,0.2987 -2.69986,-1.6136 -0.63186,-8.0857 8.65826,-27.0963 25.62312,-46.9727 50.33823,-58.9783 7.17805,-3.4867 8.94104,-3.9445 22.1029,-5.7378 z m -20.3135,37.3872 c -5.43513,1.0378 -10.29622,5.8932 -11.08725,13.4552 -0.78125,7.4718 4.88899,16.5375 11.09798,17.7451 4.36333,0.8485 6.65846,0.2799 10.19659,-2.5263 6.5706,-5.2112 7.63726,-14.9562 2.49303,-22.7652 -2.73189,-4.1472 -6.55672,-6.0663 -10.34704,-6.1172 -0.78975,-0.011 -1.5773,0.059 -2.35311,0.21 z"
       sodipodi:nodetypes="cssccccscsccccccccccccsscccccccssccccccccccsssscccccccccccsccsscccscssccccccccccccscccccsssccsscssccccsssccc" />
  </g>
</svg>
